<svg width="44" height="44" viewBox="0 0 44 44" fill="none" xmlns="http://www.w3.org/2000/svg">
<path d="M17.7891 26.6553C18.3932 27.1079 18.9816 27.5093 19.5371 27.8262C20.3072 28.2653 21.1762 28.6445 22 28.6445C22.8246 28.6445 23.6929 28.2649 24.4609 27.8252C25.0012 27.5159 25.5694 27.1236 26.1553 26.6846L33.3037 34.3135C30.7359 37.7657 26.629 40 22 40C17.1808 40 12.9288 37.5771 10.3906 33.8848L17.7891 26.6553ZM34.4727 18.752C35.4894 21.3763 36.0801 23.887 36.0801 25.9199C36.08 28.1761 35.5474 30.3049 34.6055 32.1934L28.0234 25.1699C30.2787 23.2113 32.6758 20.7338 34.4727 18.752ZM9.47168 18.7598C11.2692 20.7278 13.6598 23.184 15.9131 25.1348L9.16992 31.7207C8.36878 29.9516 7.91998 27.9883 7.91992 25.9199C7.91994 23.8851 8.48715 21.3773 9.47168 18.7598ZM22 4C22.7239 4.00002 23.6233 4.29985 24.6709 4.97363C25.7078 5.64058 26.8091 6.62211 27.9111 7.84961C29.964 10.1363 31.9315 13.1772 33.4248 16.3242C31.3908 18.6251 28.2258 21.9444 25.5273 24.1357C24.6865 24.8185 23.9193 25.368 23.2676 25.7412C22.575 26.1377 22.1674 26.2441 22 26.2441C21.832 26.2441 21.4224 26.138 20.7266 25.7412C20.0715 25.3676 19.2999 24.8169 18.4541 24.1338C15.7377 21.9396 12.5462 18.6158 10.4971 16.3145C11.9549 13.1682 13.8887 10.1321 15.9365 7.84961C17.0355 6.62481 18.1428 5.64539 19.1992 4.97949C20.2625 4.30935 21.2055 4.00001 22 4Z" fill="white" fill-opacity="0.9"/>
</svg>
